PathFileType	4	(X/Y/Z)	Patient4_TMGait_0pt6_01_left_29.trc.trc
DataRate	CameraRate	NumFrames	NumMarkers	Units	OrigDataRate	OrigDataStartFrame	OrigNumFrames
82.840236686391	82.840236686391	4	33	mm	82.840236686391	106	       141
Frame#	Time	Sacral			L.Shoulder			Chest			R.Shoulder			Neck			R.ASIS			L.ASIS			R.Thigh.Superior			R.Thigh.Lateral			R.Thigh.Inferior			R.Patella			L.Thigh.Superior			L.Thigh.Lateral			L.Thigh.Inferior			L.Patella			L.Shank.Superior			L.Shank.Lateral			L.Shank.Inferior			R.Shank.Superior			R.Shank.Lateral			R.Shank.Inferior			R.Heel			R.Midfoot.Superior			R.Midfoot.Lateral			R.Toe			L.Heel			L.Midfoot.Lateral			L.Midfoot.Superior			L.Toe			L.Elbow			L.Wrist			R.Elbow			R.Wrist			
		X1	Y1	Z1	X2	Y2	Z2	X3	Y3	Z3	X4	Y4	Z4	X5	Y5	Z5	X6	Y6	Z6	X7	Y7	Z7	X8	Y8	Z8	X9	Y9	Z9	X10	Y10	Z10	X11	Y11	Z11	X12	Y12	Z12	X13	Y13	Z13	X14	Y14	Z14	X15	Y15	Z15	X16	Y16	Z16	X17	Y17	Z17	X18	Y18	Z18	X19	Y19	Z19	X20	Y20	Z20	X21	Y21	Z21	X22	Y22	Z22	X23	Y23	Z23	X24	Y24	Z24	X25	Y25	Z25	X26	Y26	Z26	X27	Y27	Z27	X28	Y28	Z28	X29	Y29	Z29	X30	Y30	Z30	X31	Y31	Z31	X32	Y32	Z32	X33	Y33	Z33	

106	36.557500000000	725.382622115153	1007.837777745023	526.461982567443	858.738464516761	1440.843279253558	339.229300217473	983.632700518713	1377.109417591546	486.034964867578	917.720707567022	1441.996145308681	670.059114976507	855.227697009857	1499.095359020774	495.887513058285	958.892820100117	947.473083215554	626.574567827110	926.589600102553	969.345320168463	354.673390847246	976.842858531449	738.984724417073	595.097290704407	883.935984422052	635.119280258454	654.126719462853	953.626347530257	577.898035773307	574.366874780071	943.649352427624	491.276906202901	578.034669956737	1017.311323201476	792.978472595543	374.260688181664	975.567172655469	665.148481613723	293.989607141114	1085.597850291968	609.354566472339	346.671850643547	1109.288284963460	528.802860357663	335.836110846617	1066.606270531028	452.479858030641	330.944374905502	949.983937966379	359.786622518512	289.695362219594	994.413423077202	235.069202816095	340.551592756535	912.834747386025	403.762998736886	580.328443887157	834.880289215471	300.501861026975	634.027311048421	877.866254985978	206.806855161494	568.682926828334	741.152477405470	43.454094736933	524.503847135449	912.433342841926	97.292327897559	567.978061580228	821.987970401496	36.704051719044	602.020182919094	1030.183031300490	43.331691687111	598.490228405357	851.064928362707	96.643932535908	389.933757510876	912.901776580261	82.567307896556	301.866854293280	1007.017872346600	132.392717755028	315.704781884916	1119.863582519467	64.498612553977	272.796568839731	815.708737558962	1082.819855997941	236.353088602225	857.520830965090	826.299099292445	235.189164317769	999.537943913065	1100.917794228239	789.146439582905	1207.416878322296	945.832660129667	766.698286869812	
107	36.569571428571	724.368586216028	1007.995330899763	526.695575840132	858.241755507212	1440.478419300264	339.329587178598	983.725117501332	1376.348598358444	485.452760831956	918.993654573644	1441.525711839363	669.818558998169	855.629574532576	1498.723593534836	495.868069217162	957.948639336262	946.733039511221	626.163048880211	925.150381678572	968.871353936700	354.393663671651	973.804296914770	737.963577314024	594.647067902146	880.000243945713	634.866973537131	654.069723015769	948.588164393616	577.060662150121	574.000591308651	937.804333792777	490.792167667607	577.642214069483	1015.374369214511	792.905881011320	374.543257887576	974.558304587369	665.005779268214	293.740663261286	1083.797399598478	609.432366553286	348.064467164203	1108.905033939001	530.940712647602	337.002247010550	1070.217285886950	454.472334122239	331.253521824472	960.202235820970	354.990694722085	288.383620164892	1012.147408835836	232.839459986689	338.974622554057	906.716334608740	403.459090960577	580.069305105403	828.620746413912	300.414296144552	634.010060136978	871.050465472624	206.590544016344	568.499440860275	733.896282036944	43.414434832991	524.571967381248	905.101673480046	97.165382257192	567.864686295727	814.694950335016	36.693234531204	602.051537893211	1022.887642637697	43.179822320338	598.514337272914	877.694873991133	85.447013611932	386.635402058617	941.091852541784	75.495392102760	299.084146622901	1031.839520274308	130.884954009261	313.827435226534	1148.960840989810	70.066539043326	271.838161983496	805.855958423167	1083.657948354956	237.622111589887	838.803579870772	825.993364937876	238.305774511998	1007.769616459404	1102.822880906532	789.073365526480	1223.091258960463	958.787977631632	764.696009538933	
108	36.581642857143	723.378182701474	1008.054517990701	526.794070008404	857.898860152189	1440.033049966223	339.268906755648	983.884830888772	1375.446858017990	484.751194455908	920.259355791868	1440.896130003205	669.425408645576	856.120350158519	1498.251768581987	495.697333023036	957.019683081339	945.935940214713	625.650595511502	923.764699625639	968.215081844723	353.978448706840	970.879710855618	736.884547022114	594.294394680957	876.101375557242	634.582698279447	653.987107532690	943.629218922626	576.191565491059	573.660724773518	932.033134013660	490.272037583765	577.253623917917	1013.144615804253	792.350677619394	374.772555569074	973.036890599118	664.472964111570	293.411972973593	1081.436312588000	608.973932184986	349.418150312285	1107.887766893214	532.633165763723	338.245691558705	1073.195586370604	456.324073587994	331.676169576406	970.231531989140	350.488089209451	287.077519263035	1029.365572963901	231.412511383512	337.638730292349	900.643299632286	403.153727383046	579.818276416613	822.382833935513	300.321671290778	634.000834758635	864.238363436344	206.366675775200	568.317704442525	726.631731851486	43.367050837522	524.644330956780	897.763734777571	97.039037028797	567.750737787332	807.400021337142	36.681492379413	602.088515302349	1015.600209911203	43.032730331566	598.534575449005	904.130694746263	75.819013293847	383.485204340556	969.093091206143	69.781537751515	296.646119722495	1056.186727115427	130.430051369289	312.360354926255	1177.182488247026	76.657646750621	271.762646450114	796.219327992950	1084.681425105178	238.862963091312	820.660940810341	826.222818134177	241.391951930912	1015.549184502359	1104.640971675354	788.778444739947	1237.716449585032	972.020351349869	762.536968811202	
109	36.593714285714	722.434242092060	1008.031259628014	526.774714997643	857.698618762606	1439.536695800510	339.042132250232	984.098275368707	1374.441243570449	483.932833926311	921.496174717360	1440.142639236708	668.878071867440	856.682702228310	1497.703841492151	495.379266247345	956.129569621096	945.112884282812	625.043545576698	922.421895037863	967.411410752299	353.427088319407	968.064525965606	735.764346395797	594.014535604791	872.234617803923	634.289010303038	653.869278817834	938.741516531979	575.308057462977	573.339748644852	926.330844257945	489.728849344726	576.865031953781	1010.675889222391	791.397597411049	374.903995522796	971.041701948039	663.603472586669	292.992706811475	1078.652115386391	608.091778425184	350.586380343818	1106.353241886598	533.934854687968	339.456271516858	1075.588065832778	458.052483862078	332.145647362488	979.911225170987	346.383803735792	285.852914548651	1045.817140009241	230.802599986274	336.576790704465	894.609031784327	402.858970551977	579.571746373360	816.149744835945	300.244071726429	633.996498941424	857.424334862010	206.150831595973	568.145784220721	719.355945985942	43.321063317783	524.720108458194	890.424991275254	96.921166083352	567.648848592662	800.102498147112	36.670007354260	602.130927054612	1008.320009763670	42.895633510796	598.551921188322	929.907288825082	67.892798120601	380.665612328794	996.408162687958	65.441750919071	294.691960141941	1079.681639957545	130.971982778012	311.340278823546	1204.112651211171	84.049914697778	272.541367351530	786.906887326354	1085.888186168102	240.081728007226	803.153840301049	826.942499420228	244.422270939293	1022.887293090711	1106.374352249322	788.242939013297	1251.255374651591	985.427381535966	760.229589258835	
